<svg width="22" height="22" fill="none" xmlns="http://www.w3.org/2000/svg"><path d="M20.84 12.784L20 11.523v-1.046l.84-1.259a1.527 1.527 0 00.194-1.279 10.445 10.445 0 00-.773-1.871 1.51 1.51 0 00-1.04-.765l-1.487-.297-.74-.74-.297-1.487a1.51 1.51 0 00-.766-1.04 10.488 10.488 0 00-1.87-.773 1.514 1.514 0 00-1.278.194l-1.26.84h-1.046l-1.26-.84A1.507 1.507 0 007.939.966c-.647.196-1.274.456-1.87.773a1.503 1.503 0 00-.766 1.04l-.297 1.487-.74.74-1.488.297a1.505 1.505 0 00-1.04.766 10.49 10.49 0 00-.773 1.87 1.51 1.51 0 00.194 1.278L2 10.477v1.046l-.842 1.261a1.511 1.511 0 00-.193 1.278c.197.646.456 1.272.774 1.868a1.502 1.502 0 001.04.767l1.487.297.74.74.297 1.486a1.5 1.5 0 00.765 1.042c.597.317 1.223.576 1.87.771a1.495 1.495 0 001.279-.193l1.26-.84h1.046l1.26.84a1.485 1.485 0 001.279.194 10.44 10.44 0 001.868-.773 1.498 1.498 0 00.766-1.04l.298-1.487.74-.74 1.487-.297a1.51 1.51 0 001.04-.766c.318-.597.577-1.223.773-1.87a1.528 1.528 0 00-.194-1.277zM11 15.5a4.5 4.5 0 110-9 4.5 4.5 0 010 9z" fill="#EBEBF5"/></svg>