<svg width="24" height="18" fill="none" xmlns="http://www.w3.org/2000/svg"><path d="M15.75 9a3.75 3.75 0 11-7.5 0 3.75 3.75 0 017.5 0zM7.757 4.757a.75.75 0 10-1.06-1.06 7.494 7.494 0 000 10.606.751.751 0 101.06-1.06 5.995 5.995 0 010-8.486zM19.5 9a7.48 7.48 0 00-2.196-5.303.75.75 0 00-1.061 1.06 5.994 5.994 0 010 8.486.75.75 0 001.06 1.06A7.48 7.48 0 0019.5 9zM3.016 12.795a9.74 9.74 0 012.09-10.69.75.75 0 00-1.06-1.06 11.241 11.241 0 000 15.91.75.75 0 101.06-1.06 9.716 9.716 0 01-2.09-3.1zm19.35-8.174a11.211 11.211 0 00-2.41-3.576.75.75 0 00-1.062 1.06 9.742 9.742 0 010 13.79.75.75 0 101.061 1.06 11.26 11.26 0 002.41-12.334z" fill="#EBEBF5"/></svg>